<svg xmlns="http://www.w3.org/2000/svg" xml:space="preserve" width="2.66666in" height="2.66666in" version="1.1" style="shape-rendering:geometricPrecision; text-rendering:geometricPrecision; image-rendering:optimizeQuality; fill-rule:evenodd; clip-rule:evenodd" viewBox="0 0 2667 2667" xmlns:xlink="http://www.w3.org/1999/xlink">
<defs>
<style type="text/css">
   
    .fil3 {fill:#187D96}
    .fil4 {fill:#4A5254}
    .fil0 {fill:#B5EAD7}
    .fil5 {fill:#DE5183}
    .fil2 {fill:#FF806A}
    .fil1 {fill:#FF9E83}
   
  </style>
</defs>
<g id="Layer_x0020_1">
<metadata id="CorelCorpID_0Corel-Layer"></metadata>
<circle class="fil0" cx="1333" cy="1333" r="1333" id="id_116" style="fill: rgb(255, 255, 255);"></circle>
<g id="_429482800">
<path class="fil1" d="M1100 485c23,6 44,18 61,35 15,15 26,34 33,54 17,-8 36,-12 55,-12 49,0 92,26 116,65 20,-12 44,-19 69,-19 73,0 133,58 135,131 15,-6 32,-9 49,-9 36,0 70,14 96,39 25,26 39,60 39,96l0 788c0,6 -1,11 -3,16l-84 203 -3 15c-8,22 -33,33 -56,24 -11,-4 -19,-12 -23,-22l-567 0c-7,16 -23,28 -42,27 -24,-2 -42,-22 -41,-46 0,-4 1,-79 -80,-159 -105,-105 -131,-212 -132,-216 -1,-4 -1,-7 -1,-11 1,-26 -23,-93 -41,-135 -38,-56 -49,-106 -32,-147 22,-53 79,-66 85,-67 3,-1 7,-1 10,-1 82,3 143,50 187,103l0 -622c0,-36 14,-70 40,-95 25,-26 59,-40 95,-40 12,0 24,2 35,5z" id="id_117"></path>
<path class="fil2" d="M1172 533c10,12 17,26 22,41 7,-4 14,-6 21,-8l0 507c0,11 -9,21 -21,21 -12,0 -22,-10 -22,-21l0 -540z" id="id_118"></path>
<path class="fil2" d="M1343 600c9,8 16,17 22,27 7,-4 14,-8 22,-11l0 510c-1,11 -10,21 -22,21 -12,0 -22,-10 -22,-21l0 -526z" id="id_119"></path>
<path class="fil2" d="M1552 677c10,18 16,39 17,62 8,-3 17,-6 26,-7l0 499c0,12 -10,22 -22,22 -12,0 -21,-10 -21,-22l0 -554z" id="id_120"></path>
<path class="fil3" d="M1666 1872l0 271c0,12 -4,23 -12,31 -8,8 -19,13 -31,13l-646 0c-11,0 -22,-5 -30,-13 -9,-8 -13,-19 -13,-31l0 -271 732 0z" id="id_121"></path>
</g>
<path class="fil2" d="M1563 1544c-66,0 -119,-53 -119,-119 0,-66 53,-120 119,-120 66,0 120,54 120,120 0,66 -54,119 -120,119z" id="id_122"></path>
<path class="fil2" d="M1162 1453c-66,0 -119,-54 -119,-120 0,-66 53,-120 119,-120 66,0 120,54 120,120 0,66 -54,120 -120,120z" id="id_123"></path>
<path class="fil2" d="M1118 1807c-66,0 -120,-54 -120,-120 0,-66 54,-120 120,-120 66,0 119,54 119,120 0,66 -53,120 -119,120z" id="id_124"></path>
<path class="fil4" d="M1162 1353c-4,0 -9,-2 -13,-5l-396 -374c-8,-8 -8,-20 -1,-28 8,-8 20,-9 28,-1l396 373c8,8 9,21 1,29 -4,4 -9,6 -15,6z" id="id_125"></path>
<path class="fil5" d="M727 997c-41,0 -74,-34 -74,-75 0,-41 33,-74 74,-74 41,0 75,33 75,74 0,41 -34,75 -75,75z" id="id_126"></path>
<path class="fil4" d="M1905 1445l-342 0c-11,0 -20,-9 -20,-20 0,-11 9,-20 20,-20l342 0c11,0 20,9 20,20 0,11 -9,20 -20,20z" id="id_127"></path>
<path class="fil5" d="M1960 1499c-41,0 -75,-33 -75,-74 0,-41 34,-75 75,-75 41,0 74,34 74,75 0,41 -33,74 -74,74z" id="id_128"></path>
<path class="fil4" d="M754 1923c-7,0 -14,-3 -18,-10 -5,-9 -2,-21 7,-27l364 -216c10,-6 22,-3 28,7 6,9 2,21 -7,27l-364 216c-3,2 -7,3 -10,3z" id="id_129"></path>
<path class="fil5" d="M707 2005c-41,0 -75,-33 -75,-74 0,-41 34,-74 75,-74 41,0 74,33 74,74 0,41 -33,74 -74,74z" id="id_130"></path>
</g>
</svg>