<?xml version="1.0" encoding="UTF-8"?>
<!DOCTYPE svg PUBLIC "-//W3C//DTD SVG 1.1//EN" "http://www.w3.org/Graphics/SVG/1.1/DTD/svg11.dtd">
<!-- Creator: CorelDRAW -->
<svg xmlns="http://www.w3.org/2000/svg" xml:space="preserve" width="1.70666in" height="1.70666in" version="1.1" style="shape-rendering:geometricPrecision; text-rendering:geometricPrecision; image-rendering:optimizeQuality; fill-rule:evenodd; clip-rule:evenodd"
viewBox="0 0 1707 1707"
 xmlns:xlink="http://www.w3.org/1999/xlink">
 <defs>
  <style type="text/css">
   <![CDATA[
    .fil0 {fill:#000002}
    .fil3 {fill:#4A5254}
    .fil4 {fill:#FF5329}
    .fil2 {fill:#FF9E83}
    .fil1 {fill:#FFC3A1}
   ]]>
  </style>
 </defs>
 <g id="Layer_x0020_1">
  <metadata id="CorelCorpID_0Corel-Layer"/>
  <g id="_672934512">
   <path class="fil0" d="M896 389c-35,0 -60,5 -60,5 -317,80 -327,278 -328,287l21 625c5,200 140,335 263,335 46,0 87,-19 119,-55 43,-49 90,-152 65,-364 -1,-11 -22,-267 69,-368 80,-89 84,-179 84,-180 4,-100 -17,-175 -62,-222 -50,-53 -120,-63 -171,-63z"/>
   <path class="fil1" d="M792 1681c-142,0 -298,-143 -303,-374l-21 -626c0,-11 10,-238 359,-326 4,-1 169,-36 269,69 53,56 78,140 73,251 0,4 -3,105 -94,205 -80,89 -60,336 -59,338 27,226 -26,340 -75,395 -40,45 -91,68 -149,68z"/>
   <path class="fil1" d="M1064 317c-66,0 -119,-71 -119,-159 0,-87 53,-158 119,-158 65,0 119,71 119,158 0,88 -54,159 -119,159z"/>
   <path class="fil1" d="M827 293c-45,0 -84,-45 -89,-104 -6,-62 27,-115 75,-119 49,-5 90,42 96,104 3,28 -3,56 -16,78 -14,24 -36,39 -59,41 -2,0 -5,0 -7,0z"/>
   <path class="fil1" d="M657 336c-31,0 -61,-22 -78,-57 -10,-20 -13,-43 -10,-63 4,-23 16,-41 34,-49 8,-4 17,-6 26,-6 30,0 61,22 78,57 10,21 13,44 10,64 -4,22 -17,40 -35,49 -7,4 -16,5 -25,5z"/>
   <path class="fil1" d="M530 429c-25,0 -52,-15 -70,-40 -27,-38 -26,-84 4,-106 9,-7 21,-10 33,-10 25,0 52,15 69,39 13,18 20,37 20,56 0,21 -9,40 -24,51 -9,6 -20,10 -32,10z"/>
   <path class="fil1" d="M447 547c-23,0 -47,-13 -65,-33 -30,-35 -32,-80 -5,-103 10,-9 23,-13 37,-13 23,0 47,12 65,33 29,34 31,80 4,103 -9,8 -22,13 -36,13z"/>
   <path class="fil2" d="M890 726c-65,0 -118,-53 -118,-118 0,-65 53,-118 118,-118 65,0 118,53 118,118 0,65 -53,118 -118,118z"/>
   <path class="fil2" d="M674 1049c-65,0 -118,-53 -118,-119 0,-65 53,-118 118,-118 65,0 118,53 118,118 0,66 -53,119 -118,119z"/>
   <path class="fil2" d="M802 1465c-65,0 -118,-53 -118,-118 0,-65 53,-118 118,-118 65,0 118,53 118,118 0,65 -53,118 -118,118z"/>
   <g>
    <path class="fil3" d="M890 628c-10,0 -19,-8 -20,-18 -1,-11 7,-21 18,-22l576 -59c11,-1 21,7 22,18 1,11 -7,21 -18,22l-576 59c0,0 -1,0 -2,0z"/>
    <path class="fil4" d="M1540 636c-52,0 -95,-42 -95,-94 0,-52 43,-94 95,-94 51,0 94,42 94,94 0,52 -43,94 -94,94z"/>
   </g>
   <g>
    <path class="fil3" d="M768 1354c-8,-5 -12,-16 -7,-25 4,-10 16,-15 26,-10l525 245c9,4 14,16 9,26 -5,10 -16,14 -26,10l-525 -245c0,0 -1,0 -2,-1z"/>
    <path class="fil4" d="M1322 1694c-45,-27 -59,-85 -33,-129 27,-45 85,-59 129,-33 45,27 60,85 33,129 -26,45 -84,59 -129,33z"/>
   </g>
   <path class="fil3" d="M686 920c9,4 14,15 10,25 -3,10 -15,16 -25,12l-420 -150c0,-1 1,-2 1,-3 6,-11 9,-23 9,-35l423 150c1,0 2,1 2,1z"/>
   <path class="fil4" d="M208 679c46,22 66,78 44,125 -22,47 -78,67 -125,45 -47,-22 -67,-79 -45,-125 22,-47 79,-67 126,-45z"/>
  </g>
 </g>
</svg>
