<?xml version="1.0" encoding="UTF-8" standalone="no"?> <svg xmlns="http://www.w3.org/2000/svg" width="1706.67" height="1510.184" viewBox="0 0 1706.67 1510.184">
  <g id="Layer_x0020_1" transform="translate(-313.33 -411.578)">
    <path id="Path_15" data-name="Path 15" d="M1166.67,701.44A465.255,465.255,0,1,1,837.71,837.71a463.763,463.763,0,0,1,328.96-136.27Zm291.25,173.98a411.9,411.9,0,1,0,120.64,291.26,410.619,410.619,0,0,0-120.64-291.26Z" fill="#250e1e"/>
    <path id="Path_16" data-name="Path 16" d="M1509.59,625.81a26.551,26.551,0,0,0-46.04-26.46L1362.93,773.63a26.551,26.551,0,0,0,46.04,26.46l100.62-174.28Z" fill="#250e1e"/>
    <path id="Path_17" data-name="Path 17" d="M1515.98,467.15a66.89,66.89,0,0,0-18.01,121.32,25.253,25.253,0,0,1,3.76,2.17,66.832,66.832,0,1,0,14.25-123.48Zm133.28,33.46a119.983,119.983,0,1,1-147.03-84.92,120.178,120.178,0,0,1,147.03,84.92Z" fill="#250e1e"/>
    <path id="Path_18" data-name="Path 18" d="M1806.47,1193.33a26.67,26.67,0,0,0,0-53.34H1605.23a26.67,26.67,0,1,0,0,53.34Z" fill="#250e1e"/>
    <path id="Path_19" data-name="Path 19" d="M2020,1166.67a120.112,120.112,0,1,1-35.18-84.92,120.112,120.112,0,0,1,35.18,84.92Zm-53.34,0a66.76,66.76,0,1,0-66.76,66.76A66.551,66.551,0,0,0,1966.66,1166.67Z" fill="#250e1e"/>
    <path id="Path_20" data-name="Path 20" d="M1463.55,1733.98a26.551,26.551,0,1,0,46.04-26.46l-100.62-174.28a26.551,26.551,0,0,0-46.04,26.46Z" fill="#250e1e"/>
    <path id="Path_21" data-name="Path 21" d="M1502.23,1917.64a119.974,119.974,0,0,1-31.44-218.39,26.576,26.576,0,0,1,5.07-2.93,120.034,120.034,0,1,1,26.37,221.33Zm13.75-51.46a25.753,25.753,0,1,0-.01.01Z" fill="#250e1e"/>
    <path id="Path_22" data-name="Path 22" d="M823.74,1707.52a26.551,26.551,0,1,0,46.04,26.46L970.4,1559.7a26.551,26.551,0,1,0-46.04-26.46Z" fill="#250e1e"/>
    <path id="Path_23" data-name="Path 23" d="M764.72,1858.46a26.552,26.552,0,0,1,3.36,1.9,66.86,66.86,0,0,0,67.28-115.49,25.249,25.249,0,0,1-3.76-2.17,66.88,66.88,0,0,0-66.88,115.75Zm-27.16,45.63a114.557,114.557,0,1,1,2.46,1.53l-.03.06a28.946,28.946,0,0,1-2.43-1.58Z" fill="#250e1e"/>
    <path id="Path_24" data-name="Path 24" d="M526.86,1140a26.67,26.67,0,0,0,0,53.34H728.1a26.67,26.67,0,0,0,0-53.34Z" fill="#250e1e"/>
    <path id="Path_25" data-name="Path 25" d="M313.33,1166.67a120.095,120.095,0,0,1,205.02-84.92h0c.56.56,1.09,1.15,1.6,1.74a120.057,120.057,0,1,1-206.62,83.18Zm72.89-47.21a66.7,66.7,0,1,0,95.7,1.2c-.44-.38-.87-.78-1.28-1.2h0a66.777,66.777,0,0,0-94.42,0Z" fill="#250e1e"/>
    <path id="Path_26" data-name="Path 26" d="M869.78,599.35a26.551,26.551,0,0,0-46.04,26.46L924.36,800.09a26.551,26.551,0,1,0,46.04-26.46Z" fill="#250e1e"/>
    <path id="Path_27" data-name="Path 27" d="M831.1,415.69a120.066,120.066,0,1,1-147.04,84.92A119.706,119.706,0,0,1,831.1,415.69Zm-13.75,51.46a25.774,25.774,0,1,0,.01-.01Z" fill="#250e1e"/>
    <path id="Path_28" data-name="Path 28" d="M1117.49,1080.22a26.67,26.67,0,1,0,0-53.34c-13.58,0-26.29-7.44-35.83-19.47-10.89-13.73-17.64-33.09-17.64-54.83s6.74-41.11,17.64-54.83c9.54-12.02,22.25-19.47,35.83-19.47s26.29,7.44,35.83,19.47c10.89,13.73,17.64,33.1,17.64,54.83a26.67,26.67,0,0,0,53.34,0c0-34.02-11.2-65.15-29.31-87.96-19.46-24.51-46.84-39.68-77.5-39.68s-58.05,15.17-77.5,39.68c-18.1,22.81-29.31,53.94-29.31,87.96s11.2,65.15,29.31,87.96C1059.45,1065.05,1086.83,1080.22,1117.49,1080.22Z" fill="#250e1e"/>
    <path id="Path_29" data-name="Path 29" d="M1284.14,1485.31a26.67,26.67,0,0,0,0-53.34c-25.06,0-47.21-5.93-62.77-15.51-11.78-7.26-19.07-16.06-19.07-24.66s7.29-17.4,19.07-24.66c15.56-9.58,37.71-15.51,62.77-15.51s47.21,5.93,62.77,15.51c11.78,7.26,19.07,16.05,19.07,24.66a26.67,26.67,0,0,0,53.34,0c0-28.3-17-52.94-44.49-69.87-23.71-14.6-55.81-23.64-90.69-23.64s-66.98,9.04-90.69,23.64c-27.48,16.93-44.49,41.57-44.49,69.87s17,52.94,44.49,69.87c23.71,14.6,55.81,23.64,90.69,23.64Z" fill="#250e1e"/>
    <path id="Path_30" data-name="Path 30" d="M935.18,1231.45a94.38,94.38,0,1,1-94.38,94.38,94.482,94.482,0,0,1,94.38-94.38Zm0,53.34a41.04,41.04,0,1,0,41.04,41.04A40.933,40.933,0,0,0,935.18,1284.79Z" fill="#250e1e"/>
    <path id="Path_31" data-name="Path 31" d="M1193.33,619.75a26.67,26.67,0,0,0-53.34,0V728.42a26.67,26.67,0,0,0,53.34,0Z" fill="#250e1e"/>
    <path id="Path_32" data-name="Path 32" d="M1116.67,593.08a26.67,26.67,0,1,0,0,53.34h100a26.67,26.67,0,1,0,0-53.34Z" fill="#250e1e"/>
    <path id="Path_33" data-name="Path 33" d="M1653.54,916.23a26.551,26.551,0,1,0-26.46-46.04l-94.11,54.33a26.551,26.551,0,1,0,26.46,46.04Z" fill="#250e1e"/>
    <path id="Path_34" data-name="Path 34" d="M1638.33,836.68a26.551,26.551,0,0,0-46.04,26.46l50,86.61a26.551,26.551,0,0,0,46.04-26.46Z" fill="#250e1e"/>
    <path id="Path_35" data-name="Path 35" d="M1627.09,1463.15a26.551,26.551,0,0,0,26.46-46.04l-94.11-54.33a26.551,26.551,0,1,0-26.46,46.04Z" fill="#250e1e"/>
    <path id="Path_36" data-name="Path 36" d="M1688.33,1410.06a26.551,26.551,0,1,0-46.04-26.46l-50,86.61a26.551,26.551,0,0,0,46.04,26.46Z" fill="#250e1e"/>
    <path id="Path_37" data-name="Path 37" d="M1140,1713.59a26.67,26.67,0,0,0,53.34,0V1604.92a26.67,26.67,0,0,0-53.34,0Z" fill="#250e1e"/>
    <path id="Path_38" data-name="Path 38" d="M1216.67,1740.26a26.67,26.67,0,1,0,0-53.34h-100a26.67,26.67,0,1,0,0,53.34Z" fill="#250e1e"/>
    <path id="Path_39" data-name="Path 39" d="M679.79,1417.11a26.551,26.551,0,0,0,26.46,46.04l94.11-54.33a26.551,26.551,0,0,0-26.46-46.04Z" fill="#250e1e"/>
    <path id="Path_40" data-name="Path 40" d="M695,1496.66a26.551,26.551,0,1,0,46.04-26.46l-50-86.61A26.551,26.551,0,1,0,645,1410.05Z" fill="#250e1e"/>
    <path id="Path_41" data-name="Path 41" d="M706.24,870.19a26.551,26.551,0,1,0-26.46,46.04l94.11,54.33a26.551,26.551,0,0,0,26.46-46.04Z" fill="#250e1e"/>
    <path id="Path_42" data-name="Path 42" d="M645,923.28a26.551,26.551,0,0,0,46.04,26.46l50-86.61A26.551,26.551,0,1,0,695,836.67Z" fill="#250e1e"/>
    <path id="Path_43" data-name="Path 43" d="M1316,1024.77a26.621,26.621,0,0,0-7.51,52.71l48.59,6.94-36.44,63.11a26.551,26.551,0,0,0,46.04,26.46l54.79-94.9a26.669,26.669,0,0,0-17.96-41.86l-.02.04-87.5-12.5Z" fill="#250e1e"/>
  </g>
</svg>
