<?xml version="1.0" encoding="UTF-8" standalone="no"?> <svg width="52" height="52" viewBox="0 0 52 52" fill="none" xmlns="http://www.w3.org/2000/svg">
<path d="M26 22.875C26.8629 22.875 27.5625 23.5746 27.5625 24.4375V29.125H32.25C33.1129 29.125 33.8125 29.8246 33.8125 30.6875C33.8125 31.5504 33.1129 32.25 32.25 32.25H27.5625V36.9375C27.5625 37.8004 26.8629 38.5 26 38.5C25.1371 38.5 24.4375 37.8004 24.4375 36.9375V32.25H19.75C18.8871 32.25 18.1875 31.5504 18.1875 30.6875C18.1875 29.8246 18.8871 29.125 19.75 29.125H24.4375V24.4375C24.4375 23.5746 25.1371 22.875 26 22.875Z" fill="black"/>
<path d="M11.9375 1C12.8004 1 13.5 1.69956 13.5 2.5625V4.125H38.5V2.5625C38.5 1.69956 39.1996 1 40.0625 1C40.9254 1 41.625 1.69956 41.625 2.5625V4.125H44.75C48.2018 4.125 51 6.92322 51 10.375V44.75C51 48.2018 48.2018 51 44.75 51H7.25C3.79822 51 1 48.2018 1 44.75V10.375C1 6.92322 3.79822 4.125 7.25 4.125H10.375V2.5625C10.375 1.69956 11.0746 1 11.9375 1ZM4.125 13.5V44.75C4.125 46.4759 5.52411 47.875 7.25 47.875H44.75C46.4759 47.875 47.875 46.4759 47.875 44.75V13.5H4.125Z" fill="black"/>
<path d="M26 22.875C26.8629 22.875 27.5625 23.5746 27.5625 24.4375V29.125H32.25C33.1129 29.125 33.8125 29.8246 33.8125 30.6875C33.8125 31.5504 33.1129 32.25 32.25 32.25H27.5625V36.9375C27.5625 37.8004 26.8629 38.5 26 38.5C25.1371 38.5 24.4375 37.8004 24.4375 36.9375V32.25H19.75C18.8871 32.25 18.1875 31.5504 18.1875 30.6875C18.1875 29.8246 18.8871 29.125 19.75 29.125H24.4375V24.4375C24.4375 23.5746 25.1371 22.875 26 22.875Z" stroke="black"/>
<path d="M11.9375 1C12.8004 1 13.5 1.69956 13.5 2.5625V4.125H38.5V2.5625C38.5 1.69956 39.1996 1 40.0625 1C40.9254 1 41.625 1.69956 41.625 2.5625V4.125H44.75C48.2018 4.125 51 6.92322 51 10.375V44.75C51 48.2018 48.2018 51 44.75 51H7.25C3.79822 51 1 48.2018 1 44.75V10.375C1 6.92322 3.79822 4.125 7.25 4.125H10.375V2.5625C10.375 1.69956 11.0746 1 11.9375 1ZM4.125 13.5V44.75C4.125 46.4759 5.52411 47.875 7.25 47.875H44.75C46.4759 47.875 47.875 46.4759 47.875 44.75V13.5H4.125Z" stroke="black"/>
</svg>
