<?xml version="1.0" encoding="UTF-8"?>
<!DOCTYPE svg PUBLIC "-//W3C//DTD SVG 1.1//EN" "http://www.w3.org/Graphics/SVG/1.1/DTD/svg11.dtd">
<!-- Creator: CorelDRAW -->
<svg xmlns="http://www.w3.org/2000/svg" xml:space="preserve" width="1.70666in" height="1.70666in" version="1.1" style="shape-rendering:geometricPrecision; text-rendering:geometricPrecision; image-rendering:optimizeQuality; fill-rule:evenodd; clip-rule:evenodd"
viewBox="0 0 1706.66 1706.66"
 xmlns:xlink="http://www.w3.org/1999/xlink"
 xmlns:xodm="http://www.corel.com/coreldraw/odm/2003">
 <defs>
  <style type="text/css">
   <![CDATA[
    .fil0 {fill:black}
   ]]>
  </style>
 </defs>
 <g id="Layer_x0020_1">
  <metadata id="CorelCorpID_0Corel-Layer"/>
  <path class="fil0" d="M303.53 1706.67l-210.28 -0.03c-10.26,-0.02 -18.84,-7.75 -19.89,-17.94 -8.56,-82.66 -32.51,-578.82 283.47,-462.4 231.36,85.28 408.83,49.51 474.71,-95.58 61.81,-136.13 2.99,-350.09 -183.1,-451.63 -260.44,-142.21 -273.89,-295.48 -274.33,-301.93l-0.04 -349.04 -0.05 -0.96c-0.02,-0.72 0,-1.42 0.06,-2.12 0.17,-15.71 14.68,-21.91 26.17,-18.61l194.54 -6.21c11.88,-1.66 25.42,6.57 23.28,22.3 -0.29,2.18 -28.65,218.91 67.44,299.82 40.74,34.32 100.35,39.39 177.15,15.07 1174.81,-372.06 847.76,1297.93 112.79,1297.93 -304.55,0 -424.53,-230.22 -539.39,-161.31 -57.75,34.61 -116.83,120.53 -112.57,211.54l-0.23 0.01c0.5,10.35 -6.07,21.1 -19.72,21.1zm866.14 -1140.46c-52.12,0 -94.53,-42.39 -94.53,-94.51 0,-52.11 42.41,-94.51 94.53,-94.51 52.11,0 94.51,42.39 94.51,94.51 0.01,52.11 -42.4,94.51 -94.51,94.51zm0 -149.02c-71.74,0 -71.74,109.01 0,109.01 71.72,0 71.72,-109.01 0,-109.01zm-110.39 568.49c-52.11,0 -94.53,-42.41 -94.53,-94.53 0,-52.11 42.41,-94.51 94.53,-94.51 52.12,0 94.53,42.39 94.53,94.51 -0.02,52.12 -42.41,94.53 -94.53,94.53zm0 -149.02c-71.73,0 -71.74,109.01 0,109.01 71.75,0 71.73,-109.01 0,-109.01zm270.44 331.16c-52.12,0 -94.53,-42.41 -94.53,-94.53 0,-52.11 42.41,-94.51 94.53,-94.51 52.12,0 94.53,42.41 94.53,94.51 -0.01,52.13 -42.41,94.53 -94.53,94.53zm0 -149.01c-71.74,0 -71.74,109 0,109 71.74,0 71.74,-109 0,-109zm-298.04 380.83c-52.11,0 -94.52,-42.41 -94.52,-94.52 0,-52.11 42.41,-94.51 94.52,-94.51 52.11,0 94.51,42.41 94.51,94.51 0,52.12 -42.41,94.52 -94.51,94.52zm0 -149.01c-71.74,0 -71.74,109 0,109 71.72,0 71.72,-109 0,-109z"/>
 </g>
</svg>
