<?xml version="1.0" encoding="UTF-8"?>
<!DOCTYPE svg PUBLIC "-//W3C//DTD SVG 1.1//EN" "http://www.w3.org/Graphics/SVG/1.1/DTD/svg11.dtd">
<!-- Creator: CorelDRAW -->
<svg xmlns="http://www.w3.org/2000/svg" xml:space="preserve" width="512px" height="512px" version="1.1" style="shape-rendering:geometricPrecision; text-rendering:geometricPrecision; image-rendering:optimizeQuality; fill-rule:evenodd; clip-rule:evenodd"
viewBox="0 0 512 512"
 xmlns:xlink="http://www.w3.org/1999/xlink">
 <defs>
  <style type="text/css">
   <![CDATA[
    .fil0 {fill:black}
   ]]>
  </style>
 </defs>
 <g id="Layer_x0020_1">
  <metadata id="CorelCorpID_0Corel-Layer"/>
  <g id="_386642240">
   <g>
    <g id="_386642648">
     <path class="fil0" d="M345 239c-4,0 -8,-1 -13,-1 -3,-1 -6,-4 -6,-8 1,-4 4,-6 8,-6 4,1 8,1 11,1 47,0 84,-38 84,-84 0,-46 -37,-83 -84,-83 -46,0 -83,37 -83,83 0,15 4,30 12,43 2,3 0,8 -3,10 -3,2 -7,0 -9,-3 -9,-15 -14,-32 -14,-50 0,-54 44,-97 97,-97 54,0 98,43 98,97 0,54 -44,98 -98,98z"/>
    </g>
    <g id="_386642960">
     <path class="fil0" d="M345 282c-12,0 -25,-2 -37,-5 -3,-1 -6,-5 -5,-8 1,-4 5,-6 9,-5 11,3 22,4 33,4 70,0 127,-57 127,-127 0,-70 -57,-127 -127,-127 -70,0 -127,57 -127,127 0,30 11,58 29,81 3,3 2,7 -1,10 -3,2 -7,2 -9,-1 -21,-25 -33,-57 -33,-90 0,-78 64,-141 141,-141 78,0 141,63 141,141 0,78 -63,141 -141,141z"/>
    </g>
    <g>
     <g id="_386642696">
      <path class="fil0" d="M277 291c-8,0 -15,-2 -22,-6 -12,-7 -19,-19 -21,-35 -2,-15 1,-31 9,-45 13,-22 34,-36 55,-36 8,0 15,2 21,6 12,7 20,19 22,35 2,15 -1,31 -10,46 -12,21 -34,35 -54,35zm21 -108c-16,0 -33,12 -43,29 -6,12 -9,25 -8,37 2,11 7,20 15,24 5,3 10,4 15,4 16,0 32,-11 42,-28 7,-12 10,-25 8,-37 -1,-11 -7,-20 -15,-25 -4,-2 -9,-4 -14,-4z"/>
     </g>
     <g id="_386643704">
      <path class="fil0" d="M189 381c-1,0 -1,0 -2,0 -14,0 -21,-10 -21,-19 1,-10 8,-19 22,-19 0,0 0,0 0,0 -10,-25 -4,-40 4,-48 6,-8 16,-12 27,-12 4,-1 9,0 13,1 2,0 4,1 6,1 1,0 2,0 2,0 1,0 1,0 1,0 1,0 1,-1 3,-5l2 -7c1,-3 3,-4 5,-5 3,0 5,0 7,2 1,1 3,2 4,3 5,3 9,4 14,4 2,0 4,1 6,3 1,2 1,4 1,6l-3 7c-6,18 -17,28 -33,30 -2,1 -4,1 -6,1 -3,0 -5,0 -8,-1 -1,0 -3,0 -5,-1 -2,0 -4,0 -6,-1 1,3 2,7 3,9 5,12 5,24 -2,34 -7,11 -19,17 -34,17zm-1 -24c-6,0 -8,2 -8,5 0,2 2,5 8,5 10,1 19,-3 24,-10 3,-6 4,-13 0,-21 -4,-8 -7,-19 -2,-25 3,-3 8,-4 9,-4 1,0 1,0 1,0 3,0 7,1 10,2 2,0 4,0 5,1 4,0 7,0 10,0 10,-2 17,-8 22,-20 -4,-1 -7,-2 -11,-4 -2,7 -6,13 -16,13 -1,0 -2,0 -4,0 -2,0 -4,-1 -6,-1 -4,-1 -7,-1 -11,-1 -7,0 -13,3 -17,7 -7,8 -7,20 0,36 2,4 2,8 1,11 -4,5 -11,6 -14,6 0,0 -1,0 -1,0 0,0 0,0 0,0z"/>
     </g>
    </g>
    <g>
     <g>
      <g id="_386643824">
       <path class="fil0" d="M136 308c-8,0 -15,-1 -21,-5 -12,-7 -20,-19 -22,-35 -2,-15 1,-31 10,-46 12,-21 33,-35 54,-35 8,0 15,2 21,5 25,14 30,51 13,81 -13,22 -34,35 -55,35zm21 -107c-16,0 -32,11 -42,28 -7,12 -10,25 -8,37 1,11 7,20 15,25 4,2 9,4 14,4 16,0 32,-12 42,-29 14,-24 11,-51 -7,-61 -4,-3 -9,-4 -14,-4z"/>
      </g>
      <g id="_386642864">
       <path class="fil0" d="M48 399c0,0 -1,0 -1,0 -14,-1 -21,-10 -21,-20 0,-9 7,-19 21,-19 0,0 0,0 0,0 -10,-25 -3,-40 4,-48 6,-7 16,-11 27,-12 5,0 9,1 14,2 2,0 3,0 5,1 1,0 2,0 3,0 0,0 1,0 1,0 0,-1 1,-1 2,-5l3 -8c0,-2 2,-4 5,-4 2,-1 4,0 6,1 1,2 3,3 5,4 4,2 8,3 13,3 3,1 5,2 6,4 1,1 2,4 1,6l-3 7c-6,17 -17,28 -33,30 -2,0 -4,0 -6,0 -2,0 -5,0 -7,0 -2,0 -4,-1 -6,-1 -2,0 -4,-1 -6,-1 1,3 2,6 3,9 6,12 5,24 -1,34 -7,10 -20,17 -35,17 0,0 0,0 0,0zm-1 -25c-5,0 -7,3 -7,5 0,3 2,6 7,6 10,0 19,-4 24,-11 4,-6 4,-13 0,-21 -3,-8 -7,-19 -2,-24 3,-4 8,-4 10,-4 3,0 7,0 11,1 1,1 3,1 4,1 4,1 7,1 10,0 10,-1 17,-8 22,-20 -4,-1 -7,-2 -10,-4 -3,7 -6,14 -16,14 -2,0 -3,0 -4,-1 -3,0 -5,0 -7,-1 -4,0 -7,-1 -11,-1 -7,0 -13,3 -17,7 -7,8 -7,20 1,37 2,4 2,7 0,10 -3,5 -11,6 -14,6 0,0 0,0 -1,0 0,0 0,0 0,0z"/>
      </g>
     </g>
     <g>
      <g id="_386642192">
       <path class="fil0" d="M302 421c-7,0 -14,-1 -21,-5 -24,-14 -30,-50 -12,-81 12,-21 34,-35 55,-35 7,0 14,2 21,5 12,7 20,20 22,35 2,15 -2,32 -10,46 -12,22 -34,35 -55,35zm22 -107c-16,0 -33,11 -43,28 -14,24 -10,52 7,62 4,2 9,3 14,3 16,0 33,-11 43,-28 7,-12 10,-25 8,-37 -2,-11 -7,-20 -15,-24 -4,-3 -9,-4 -14,-4z"/>
      </g>
      <g id="_386642360">
       <path class="fil0" d="M215 512c-1,0 -1,0 -2,0 -14,-1 -21,-11 -21,-20 0,-9 8,-19 21,-19 1,0 1,0 1,0 -10,-25 -4,-40 3,-48 7,-7 17,-11 27,-12 5,0 10,1 14,2 2,0 4,0 6,0 1,1 1,1 2,1 1,0 1,0 1,0 0,-1 1,-1 2,-5l3 -8c1,-2 3,-4 5,-4 2,-1 5,0 6,1 2,2 3,3 5,4 4,2 9,3 14,3 2,1 4,2 5,3 2,2 2,5 1,7l-2 7c-6,17 -18,28 -33,30 -2,0 -4,0 -7,0 -2,0 -4,0 -7,0 -2,0 -4,-1 -6,-1 -2,0 -4,-1 -5,-1 0,3 1,6 3,9 5,12 4,24 -2,34 -7,10 -20,17 -34,17zm-2 -25c-5,0 -7,3 -7,5 0,3 2,6 8,6 10,0 19,-4 23,-11 4,-6 4,-13 1,-21 -4,-8 -7,-19 -2,-24 3,-4 8,-4 9,-4 0,0 1,0 1,0 3,0 7,0 10,1 2,1 4,1 5,1 4,0 7,1 10,0 10,-1 17,-8 21,-20 -3,-1 -7,-2 -10,-4 -2,7 -6,14 -16,14 -1,0 -3,0 -4,-1 -2,0 -4,0 -7,-1 -3,0 -7,-1 -10,-1 -7,0 -13,3 -17,7 -7,8 -7,20 0,37 2,4 2,7 0,10 -3,5 -10,6 -14,6 0,0 0,0 0,0 0,0 0,0 -1,0z"/>
      </g>
     </g>
    </g>
   </g>
  </g>
 </g>
</svg>
