<?xml version="1.0" encoding="UTF-8"?>
<!DOCTYPE svg PUBLIC "-//W3C//DTD SVG 1.1//EN" "http://www.w3.org/Graphics/SVG/1.1/DTD/svg11.dtd">
<!-- Creator: CorelDRAW -->
<svg xmlns="http://www.w3.org/2000/svg" xml:space="preserve" width="1.70666in" height="1.70666in" version="1.1" style="shape-rendering:geometricPrecision; text-rendering:geometricPrecision; image-rendering:optimizeQuality; fill-rule:evenodd; clip-rule:evenodd"
viewBox="0 0 1707 1707"
 xmlns:xlink="http://www.w3.org/1999/xlink">
 <defs>
  <style type="text/css">
   <![CDATA[
    .fil0 {fill:black}
   ]]>
  </style>
 </defs>
 <g id="Layer_x0020_1">
  <metadata id="CorelCorpID_0Corel-Layer"/>
  <path class="fil0" d="M640 1696l-414 0c-8,0 -16,-5 -20,-12l-202 -349c-4,-8 -4,-17 0,-24l202 -345c4,-7 12,-11 20,-11l408 0c9,0 16,4 20,11l204 352c4,7 4,16 0,24l-198 342c-4,7 -12,12 -20,12zm-72 -120l-271 0c-13,0 -24,-11 -24,-24 0,-12 11,-23 24,-23l257 0 116 -201 -119 -207 -254 0c-13,0 -24,-10 -24,-23 0,-13 11,-23 24,-23l267 0c8,0 16,4 20,11l133 231c4,7 4,16 0,23l-129 224c-4,7 -12,12 -20,12z"/>
  <path class="fil0" d="M640 752l-414 0c-8,0 -16,-5 -20,-12l-202 -349c-4,-7 -4,-16 0,-24l202 -344c4,-8 12,-12 20,-12l408 0c9,0 16,5 20,12l204 351c4,8 4,17 0,24l-198 342c-4,7 -12,12 -20,12zm-72 -120l-271 0c-9,0 -16,-4 -21,-12l-132 -228c-4,-8 -4,-17 0,-24l132 -225c5,-8 12,-12 21,-12l267 0c13,0 23,10 23,23 0,13 -10,24 -23,24l-254 0 -118 202 118 205 258 0c12,0 23,11 23,24 0,13 -11,23 -23,23z"/>
  <path class="fil0" d="M1485 1224l-414 0c-8,0 -16,-5 -20,-12l-202 -349c-4,-8 -4,-17 0,-24l202 -345c4,-7 12,-11 20,-11l408 0c9,0 17,4 21,12l203 351c4,8 4,16 0,24l-198 342c-4,7 -12,12 -20,12zm57 -344c-8,0 -16,-4 -20,-12l-126 -219 -254 0c-13,0 -24,-10 -24,-23 0,-13 11,-23 24,-23l267 0c8,0 16,4 20,11l133 231c7,11 3,25 -8,32 -4,2 -8,3 -12,3z"/>
 </g>
</svg>
