<?xml version="1.0" encoding="utf-8"?>
<!-- Generator: Adobe Illustrator 25.4.1, SVG Export Plug-In . SVG Version: 6.00 Build 0)  -->
<svg version="1.1" id="Layer_1" xmlns="http://www.w3.org/2000/svg" xmlns:xlink="http://www.w3.org/1999/xlink" x="0px" y="0px"
	 viewBox="0 0 100 100" style="enable-background:new 0 0 100 100;" xml:space="preserve">
<path d="M36.8,26.08h0.32v64.65c0,3.18,2.59,5.77,5.77,5.77h14.22c3.18,0,5.77-2.59,5.77-5.77V26.08h0.32
	c1.51,0,2.74-1.23,2.74-2.74v-8.4c0-1.51-1.23-2.74-2.74-2.74h-2.7V8.35c0-2.68-2.18-4.85-4.85-4.85H44.35
	c-2.68,0-4.85,2.18-4.85,4.85v3.85h-2.7c-1.51,0-2.74,1.23-2.74,2.74v8.4C34.06,24.85,35.29,26.08,36.8,26.08z M59.87,90.73
	c0,1.52-1.24,2.77-2.77,2.77H42.89c-1.53,0-2.77-1.24-2.77-2.77V26.08h19.75V90.73z M42.5,8.35c0-1.02,0.83-1.85,1.85-1.85h11.29
	c1.02,0,1.85,0.83,1.85,1.85v3.85h-15V8.35z M37.06,15.2h3.83c0.04,0,0.07,0.01,0.11,0.01s0.07-0.01,0.11-0.01h17.78
	c0.04,0,0.07,0.01,0.11,0.01s0.07-0.01,0.11-0.01h3.84v7.88h-1.57H38.63h-1.57V15.2z"/>
</svg>
