<svg xmlns="http://www.w3.org/2000/svg" xml:space="preserve" width="2.66666in" height="2.66666in" version="1.1" style="shape-rendering:geometricPrecision; text-rendering:geometricPrecision; image-rendering:optimizeQuality; fill-rule:evenodd; clip-rule:evenodd" viewBox="0 0 2667 2667" xmlns:xlink="http://www.w3.org/1999/xlink">
<defs>
<style type="text/css">
   
    .fil1 {fill:#FEFEFE}
    .fil0 {fill:#FFB500}
   
  </style>
</defs>
<g id="Layer_x0020_1">
<metadata id="CorelCorpID_0Corel-Layer"></metadata>
<circle class="fil0" cx="1333" cy="1333" r="1333" id="id_111" style="fill: rgb(255, 255, 255);"></circle>
<path class="fil1" d="M1609 2187l-552 0c-11,0 -20,-9 -20,-20l0 -798c0,-137 98,-259 232,-289 26,-6 34,33 9,39 -116,26 -201,131 -201,250l0 778 512 0 0 -778c0,-119 -84,-224 -200,-250 -26,-6 -17,-45 9,-39 134,30 231,152 231,289l0 798c0,11 -9,20 -20,20z" id="id_112" style="fill: rgb(0, 0, 0);"></path>
<path class="fil1" d="M1609 2017l-552 0c-26,0 -26,-40 0,-40l552 0c27,0 27,40 0,40z" id="id_113" style="fill: rgb(0, 0, 0);"></path>
<path class="fil1" d="M1174 1164c-11,0 -20,-9 -20,-20l0 -275c0,-26 40,-26 40,0l0 275c0,11 -9,20 -20,20zm319 0c-12,0 -20,-9 -20,-20l0 -275c0,-26 40,-26 40,0l0 275c0,11 -9,20 -20,20z" id="id_114" style="fill: rgb(0, 0, 0);"></path>
<path class="fil1" d="M1498 889l-329 0c-102,0 -102,-155 0,-155l329 0c102,0 102,155 0,155zm-329 -115c-49,0 -49,75 0,75l329 0c49,0 49,-75 0,-75l-329 0 0 0z" id="id_115" style="fill: rgb(65, 95, 163);"></path>
<path class="fil1" d="M1333 1453c-44,0 -80,-36 -80,-80l0 -504c0,-26 40,-26 40,0l0 504c0,53 80,53 80,0l0 -504c0,-26 40,-26 40,0l0 504c0,44 -35,80 -80,80zm60 -679c-11,0 -20,-9 -20,-20l0 -194c0,-53 -80,-53 -80,0l0 194c0,26 -40,26 -40,0l0 -194c0,-105 160,-105 160,0l0 194c0,11 -9,20 -20,20z" id="id_116" style="fill: rgb(65, 95, 163);"></path>
<path class="fil1" d="M1296 1940c-19,0 -87,0 -94,-23 -2,-7 0,-14 5,-20 104,-106 69,-165 93,-181 75,-51 182,-52 251,-29 10,3 15,13 13,23 0,2 -48,230 -268,230zm-35 -43c168,20 236,-104 259,-177 -62,-14 -133,-10 -190,24 -6,53 -29,104 -69,153z" id="id_117" style="fill: rgb(62, 133, 48);"></path>
<path class="fil1" d="M1254 1894c-21,0 -28,-27 -10,-37l291 -168c22,-13 42,21 20,34l-291 168c-4,2 -7,3 -10,3z" id="id_118" style="fill: rgb(62, 133, 48);"></path>
<path class="fil1" d="M1217 1936c-5,0 -11,-2 -14,-6 -70,-69 -103,-143 -101,-220 4,-122 98,-205 101,-208 8,-7 19,-7 27,0 4,3 97,86 101,208 3,77 -31,151 -100,220 -4,4 -9,6 -14,6zm0 -391c-89,97 -109,223 0,342 109,-119 88,-245 0,-342z" id="id_119" style="fill: rgb(62, 133, 48);"></path>
<path class="fil1" d="M1217 1936c-11,0 -20,-9 -20,-20l0 -399c0,-27 40,-27 40,0l0 399c0,11 -9,20 -20,20z" id="id_120" style="fill: rgb(62, 133, 48);"></path>
</g>
</svg>