<svg version="1.1" id="Layer_1" xmlns="http://www.w3.org/2000/svg" xmlns:xlink="http://www.w3.org/1999/xlink" x="0px" y="0px" viewBox="0 0 637 637" style="enable-background:new 0 0 637 637;" xml:space="preserve">
<style type="text/css">
	.st0{fill:url(#SVGID_1_);}
</style>
<linearGradient id="SVGID_1_" gradientUnits="userSpaceOnUse" x1="178.8934" y1="318.5833" x2="435.595" y2="318.5833">
<stop offset="0" style="stop-color: rgb(23, 72, 82);" id="id_102"></stop>
<stop offset="1" style="stop-color:#41BDBD" id="id_103"></stop>
</linearGradient>
<path class="st0" d="M178.9,497.7c0,6.2,5,11.2,11.2,11.2h17l8.1,97.9c0.5,5.8,5.4,10.3,11.2,10.3h81.1c5.9,0,10.7-4.5,11.2-10.4
	l7.7-97.9h16.9c6.2,0,11.2-5,11.2-11.2v-40c-0.1-34.5-28-62.4-62.5-62.4h-50.8c-34.5,0-62.4,27.9-62.5,62.4V497.7z M201.4,457.7
	c0-22.1,17.9-39.9,40-39.9h50.8c22.1,0,39.9,17.9,40,39.9v28.8h-16.1c-5.9,0-10.7,4.5-11.2,10.4l-7.7,97.9h-60.4l-8.1-98
	c-0.5-5.8-5.4-10.3-11.2-10.3h-16.1V457.7z M216.9,335.3c0,27.4,22.2,49.7,49.6,49.7c27.4,0,49.7-22.2,49.7-49.7
	c0-27.4-22.2-49.7-49.7-49.7C239.2,285.7,216.9,307.9,216.9,335.3z M266.6,308.2c15,0,27.1,12.2,27.1,27.2c0,15-12.2,27.1-27.1,27.1
	c-15,0-27.1-12.2-27.1-27.1C239.4,320.3,251.6,308.2,266.6,308.2z M207.1,198.6c-6.2,0-11.2,5-11.2,11.2V226c0,6.2,5,11.2,11.2,11.2
	c6.2,0,11.2-5,11.2-11.2v-16.2C218.3,203.6,213.3,198.6,207.1,198.6z M263.3,199.8v-16.2c0-6.2-5-11.2-11.2-11.2
	c-6.2,0-11.2,5-11.2,11.2v16.2c0,6.2,5,11.2,11.2,11.2C258.2,211,263.3,206,263.3,199.8z M328.2,218.5v-17.5c0-6.2-5-11.2-11.2-11.2
	c-6.2,0-11.2,5-11.2,11.2v17.5c0,6.2,5,11.2,11.2,11.2C323.2,229.8,328.2,224.7,328.2,218.5z M292,256v-17.5c0-6.2-5-11.2-11.2-11.2
	c-6.2,0-11.2,5-11.2,11.2V256c0,6.2,5,11.2,11.2,11.2C287,267.2,292,262.2,292,256z M424.4,113.6c6.2,0,11.2-5,11.2-11.2V31.2
	c0-6.2-5-11.2-11.2-11.2c-6.2,0-11.2,5-11.2,11.2v12.4H305c-26,0-47.2,21.8-47.2,48.5v1.1H239c-26.4,0-47.8,21.4-47.9,47.9v9.2
	c0,6.2,5,11.2,11.2,11.2h133.3c6.2,0,11.2-5,11.2-11.2v-9.2c0-26.4-21.4-47.8-47.9-47.9h-18.8v-1.1c0-14.4,11.1-26.1,24.7-26.1
	h108.1v36.3C413.1,108.6,418.1,113.6,424.4,113.6z M324.3,139H213.7c1.1-13.2,12.1-23.3,25.3-23.3h60
	C312.3,115.7,323.2,125.8,324.3,139z" id="id_101"></path>
</svg>