<svg xmlns="http://www.w3.org/2000/svg" viewBox="0 0 48 48"><defs><style>.cls-1{fill:#00b157;}.cls-2{fill:#00cf66;}.cls-3{fill:#eaeff0;}</style></defs><title>Herbal</title><g id="Herbal"><path class="cls-1" d="M28.869,21a16.04,16.04,0,0,0-3.7-8.35c-.27-.32-.56-.64-.86-.94A16.5,16.5,0,0,0,8.749,7.47,16.628,16.628,0,0,0,11.289,21Z" id="id_101" style="fill: rgb(41, 102, 43);"></path><path class="cls-2" d="M19.28,19a16.04,16.04,0,0,1,3.7-8.35c.27-.32.56-.64.86-.94A16.5,16.5,0,0,1,39.4,5.47,16.628,16.628,0,0,1,36.86,19Z" id="id_102" style="fill: rgb(49, 128, 51);"></path><path class="cls-3" d="M43,21v1.54A19.686,19.686,0,0,1,35,38.4V41a2,2,0,0,1-2,2H15a2,2,0,0,1-2-2V38.48A18.942,18.942,0,0,1,5,23V21a2.006,2.006,0,0,1,2-2H41A2.006,2.006,0,0,1,43,21Z" id="id_103"></path><path d="M41,18H38.675a17.778,17.778,0,0,0,1.7-12.76A1,1,0,0,0,39.63,4.5,17.464,17.464,0,0,0,23.133,9c-.095.094-.178.2-.27.294A17.537,17.537,0,0,0,8.371,6.5a1,1,0,0,0-.744.744A17.946,17.946,0,0,0,8.371,18H7a3,3,0,0,0-3,3v2a20.008,20.008,0,0,0,8,15.989V41a3,3,0,0,0,3,3H33a3,3,0,0,0,3-3V38.9A20.728,20.728,0,0,0,44,22.54V21A3,3,0,0,0,41,18ZM38.559,6.311A15.629,15.629,0,0,1,36.313,18H28.294l7.1-7.1a1,1,0,0,0-1.414-1.414L25.466,18h-5a15,15,0,0,1,3.279-6.7c.252-.3.523-.6.8-.877A15.439,15.439,0,0,1,38.559,6.311Zm-29.118,2A15.486,15.486,0,0,1,21.55,10.843,17.051,17.051,0,0,0,18.435,18H10.56A15.805,15.805,0,0,1,9.441,8.311ZM34.409,37.594A1,1,0,0,0,34,38.4V41a1,1,0,0,1-1,1H15a1,1,0,0,1-1-1V38.48a1,1,0,0,0-.422-.815A18,18,0,0,1,6.116,25H34a1,1,0,0,0,0-2H6V21a1,1,0,0,1,1-1H41a1,1,0,0,1,1,1v1.54c0,.154-.01.307-.014.46H39a1,1,0,0,0,0,2h2.831A18.68,18.68,0,0,1,34.409,37.594Z" id="id_104"></path></g></svg>