<svg width="64" height="64" viewBox="0 0 64 64" fill="none" xmlns="http://www.w3.org/2000/svg">
<path d="M32.18 9.31H11.28C10.7277 9.31 10.28 9.75771 10.28 10.31V16.62C10.28 17.1723 10.7277 17.62 11.28 17.62H32.18C32.7323 17.62 33.18 17.1723 33.18 16.62V10.31C33.18 9.75771 32.7323 9.31 32.18 9.31Z" fill="#999999" id="id_173"></path>
<path d="M35.5299 3H7.92993C7.37765 3 6.92993 3.44772 6.92993 4V10.31C6.92993 10.8623 7.37765 11.31 7.92993 11.31H35.5299C36.0822 11.31 36.5299 10.8623 36.5299 10.31V4C36.5299 3.44772 36.0822 3 35.5299 3Z" fill="#E2E0DF" id="id_174"></path>
<path d="M35.46 15.61H8C5.23858 15.61 3 17.8486 3 20.61V56C3 58.7614 5.23858 61 8 61H35.46C38.2214 61 40.46 58.7614 40.46 56V20.61C40.46 17.8486 38.2214 15.61 35.46 15.61Z" fill="#E2E0DF" id="id_175"></path>
<path d="M39.46 27.2H4C3.44772 27.2 3 27.6477 3 28.2V48.41C3 48.9623 3.44772 49.41 4 49.41H39.46C40.0123 49.41 40.46 48.9623 40.46 48.41V28.2C40.46 27.6477 40.0123 27.2 39.46 27.2Z" fill="#17ACE8" id="id_176"></path>
<path d="M19.1201 44.52C18.8577 44.5189 18.6063 44.4147 18.4201 44.23C18.3263 44.137 18.2519 44.0264 18.2012 43.9046C18.1504 43.7827 18.1243 43.652 18.1243 43.52C18.1243 43.388 18.1504 43.2573 18.2012 43.1354C18.2519 43.0136 18.3263 42.903 18.4201 42.81L21.9201 39.31H19.1201C18.9226 39.309 18.7299 39.2496 18.5662 39.1393C18.4025 39.0289 18.2751 38.8726 18.2001 38.69C18.1247 38.5069 18.1054 38.3056 18.1446 38.1116C18.1838 37.9176 18.2796 37.7395 18.4201 37.6L23.6301 32.38C23.8174 32.1937 24.0709 32.0892 24.3351 32.0892C24.5993 32.0892 24.8527 32.1937 25.0401 32.38C25.1338 32.473 25.2082 32.5836 25.259 32.7054C25.3097 32.8273 25.3359 32.958 25.3359 33.09C25.3359 33.222 25.3097 33.3527 25.259 33.4746C25.2082 33.5964 25.1338 33.707 25.0401 33.8L21.5401 37.31H24.3401C24.5364 37.3102 24.7283 37.3681 24.8919 37.4766C25.0555 37.585 25.1835 37.7392 25.2601 37.92C25.3284 38.1056 25.3401 38.3072 25.2938 38.4994C25.2475 38.6917 25.1453 38.8658 25.0001 39L19.7901 44.22C19.6128 44.4013 19.3734 44.5086 19.1201 44.52V44.52Z" fill="#12ade6" id="id_177"></path>
<path d="M51.8799 52.86C51.8033 52.6793 51.6753 52.5251 51.5117 52.4166C51.3481 52.3081 51.1562 52.2502 50.9599 52.25H50.3299C50.2767 52.2453 50.2231 52.2453 50.1699 52.25H49.9599C49.893 52.2841 49.8294 52.3243 49.7699 52.37L49.6399 52.46C49.5777 52.5301 49.524 52.6073 49.4799 52.69C49.4799 52.69 49.4799 52.74 49.4199 52.78L47.3399 57.5C47.1629 57.9377 46.8607 58.3135 46.4712 58.5803C46.0816 58.8472 45.622 58.9931 45.1499 59C44.8847 59 44.6303 59.1054 44.4428 59.2929C44.2553 59.4805 44.1499 59.7348 44.1499 60C44.1499 60.2652 44.2553 60.5196 44.4428 60.7071C44.6303 60.8947 44.8847 61 45.1499 61H50.9999C51.2651 61 51.5195 60.8947 51.707 60.7071C51.8945 60.5196 51.9999 60.2652 51.9999 60V53.25C51.9871 53.1132 51.9463 52.9804 51.8799 52.86Z" fill="#E2E0DF" id="id_178"></path>
<path d="M59.82 53.73C59.3821 53.2644 58.8539 52.893 58.2675 52.6385C57.6812 52.3841 57.0492 52.2519 56.41 52.25H51C50.7348 52.25 50.4804 52.3554 50.2929 52.5429C50.1054 52.7304 50 52.9848 50 53.25V60C50 60.2652 50.1054 60.5196 50.2929 60.7071C50.4804 60.8946 50.7348 61 51 61H56.67C57.8277 60.9935 58.9368 60.534 59.76 59.72C60.5119 58.9604 60.954 57.9479 61 56.88C61.031 56.302 60.9422 55.7238 60.7391 55.1817C60.5361 54.6396 60.2231 54.1454 59.82 53.73V53.73Z" fill="#ED184B" id="id_179"></path>
<path d="M50.93 51.89L44.75 49.17C44.5066 49.07 44.2335 49.07 43.99 49.17C43.99 49.17 43.93 49.17 43.89 49.23C43.8079 49.267 43.7306 49.314 43.66 49.37C43.66 49.37 43.59 49.48 43.55 49.54C43.5048 49.5831 43.4676 49.6339 43.44 49.69V49.69L41.16 54.87C40.9201 55.4259 40.7942 56.0245 40.79 56.63C40.7956 57.6311 41.144 58.6001 41.7771 59.3756C42.4102 60.1511 43.2899 60.6864 44.2697 60.8921C45.2495 61.0979 46.2702 60.9618 47.1618 60.5065C48.0534 60.0513 48.7622 59.3043 49.17 58.39L51.44 53.23C51.4964 53.1088 51.528 52.9775 51.5328 52.844C51.5376 52.7104 51.5156 52.5772 51.468 52.4523C51.4205 52.3274 51.3484 52.2132 51.256 52.1166C51.1636 52.0201 51.0527 51.943 50.93 51.89Z" fill="#ED184B" id="id_180"></path>
<path d="M51.48 42.27C50.9549 42.0375 50.389 41.9111 49.8149 41.8979C49.2408 41.8847 48.6698 41.985 48.1345 42.1932C47.5993 42.4013 47.1105 42.7131 46.6961 43.1107C46.2818 43.5083 45.95 43.9839 45.72 44.51L43.43 49.69C43.38 49.8133 43.3551 49.9454 43.3568 50.0784C43.3584 50.2114 43.3866 50.3428 43.4397 50.4648C43.4928 50.5868 43.5697 50.697 43.6659 50.7889C43.7621 50.8808 43.8757 50.9526 44 51V51L50.15 53.71C50.275 53.7694 50.4116 53.8002 50.55 53.8C50.6427 53.8146 50.7372 53.8146 50.83 53.8C50.9713 53.7595 51.1019 53.6882 51.2125 53.5915C51.3231 53.4947 51.411 53.3747 51.47 53.24L53.73 48C53.9689 47.4437 54.0947 46.8454 54.1 46.24C54.0921 45.3962 53.8406 44.5727 53.3758 43.8684C52.9111 43.1641 52.2527 42.6091 51.48 42.27V42.27Z" fill="#E2E0DF" id="id_181"></path>
<path d="M35.46 15.61H33.18V11.31H35.53C35.7952 11.31 36.0496 11.2046 36.2371 11.0171C36.4246 10.8296 36.53 10.5752 36.53 10.31V4C36.53 3.73478 36.4246 3.48043 36.2371 3.29289C36.0496 3.10536 35.7952 3 35.53 3H7.93C7.66478 3 7.41043 3.10536 7.22289 3.29289C7.03536 3.48043 6.93 3.73478 6.93 4V10.31C6.93 10.5752 7.03536 10.8296 7.22289 11.0171C7.41043 11.2046 7.66478 11.31 7.93 11.31H10.28V15.61H8C6.67392 15.61 5.40215 16.1368 4.46447 17.0745C3.52678 18.0121 3 19.2839 3 20.61V56C3 57.3261 3.52678 58.5979 4.46447 59.5355C5.40215 60.4732 6.67392 61 8 61H35.46C36.7861 61 38.0579 60.4732 38.9955 59.5355C39.9332 58.5979 40.46 57.3261 40.46 56V20.61C40.46 19.2839 39.9332 18.0121 38.9955 17.0745C38.0579 16.1368 36.7861 15.61 35.46 15.61ZM8.93 5H34.53V9.31H8.93V5ZM12.28 11.31H31.18V15.61H12.28V11.31ZM8 17.61H35.46C36.2556 17.61 37.0187 17.9261 37.5813 18.4887C38.1439 19.0513 38.46 19.8144 38.46 20.61V27.2H5V20.61C5 19.8144 5.31607 19.0513 5.87868 18.4887C6.44129 17.9261 7.20435 17.61 8 17.61V17.61ZM38.46 47.41H5V29.2H38.46V47.41ZM35.46 59H8C7.20435 59 6.44129 58.6839 5.87868 58.1213C5.31607 57.5587 5 56.7956 5 56V49.41H38.46V56C38.46 56.7956 38.1439 57.5587 37.5813 58.1213C37.0187 58.6839 36.2556 59 35.46 59V59Z" fill="black" id="id_182"></path>
<path d="M18.4201 44.23C18.6063 44.4147 18.8577 44.5189 19.1201 44.52C19.2517 44.5208 19.3821 44.4955 19.504 44.4458C19.6258 44.396 19.7366 44.3227 19.8301 44.23L25.0001 39C25.1405 38.8605 25.2364 38.6824 25.2755 38.4884C25.3147 38.2944 25.2954 38.0931 25.2201 37.91C25.1435 37.7292 25.0155 37.575 24.8519 37.4666C24.6883 37.3581 24.4964 37.3002 24.3001 37.3H21.5001L25.0001 33.8C25.0938 33.707 25.1682 33.5964 25.219 33.4746C25.2697 33.3527 25.2959 33.222 25.2959 33.09C25.2959 32.958 25.2697 32.8273 25.219 32.7054C25.1682 32.5836 25.0938 32.473 25.0001 32.38C24.8127 32.1937 24.5593 32.0892 24.2951 32.0892C24.0309 32.0892 23.7774 32.1937 23.5901 32.38L18.4201 37.6C18.2796 37.7395 18.1838 37.9176 18.1446 38.1116C18.1054 38.3056 18.1247 38.5069 18.2001 38.69C18.2751 38.8726 18.4025 39.0289 18.5662 39.1393C18.7299 39.2496 18.9226 39.309 19.1201 39.31H21.9201L18.4201 42.81C18.3263 42.903 18.2519 43.0136 18.2012 43.1354C18.1504 43.2573 18.1243 43.388 18.1243 43.52C18.1243 43.652 18.1504 43.7827 18.2012 43.9046C18.2519 44.0264 18.3263 44.137 18.4201 44.23Z" fill="#12ade6" id="id_183"></path>
<path d="M59.8099 53.73C59.3739 53.2647 58.8474 52.8934 58.2628 52.6389C57.6781 52.3844 57.0476 52.2521 56.4099 52.25H51.8599L53.7199 48C54.188 46.9391 54.2155 45.7358 53.7964 44.6546C53.3773 43.5735 52.5458 42.7031 51.4849 42.235C50.4241 41.7669 49.2207 41.7394 48.1395 42.1585C47.0584 42.5777 46.188 43.4091 45.7199 44.47L41.1499 54.86C40.6855 55.9226 40.6603 57.1259 41.08 58.2069C41.4997 59.288 42.3301 60.1591 43.3899 60.63C43.9447 60.8738 44.544 60.9997 45.1499 61H56.6299C57.7483 61.0067 58.8263 60.5824 59.6401 59.8152C60.4538 59.048 60.9408 57.9968 60.9999 56.88C61.0315 56.3011 60.9419 55.7219 60.737 55.1796C60.5321 54.6372 60.2164 54.1435 59.8099 53.73ZM49.9999 56.56V59H48.8199C48.9999 58.81 49.9999 56.56 49.9999 56.56ZM47.5499 45.31C47.7352 44.8865 48.0403 44.5264 48.4277 44.2741C48.815 44.0218 49.2677 43.8883 49.7299 43.89C50.0747 43.8852 50.4162 43.9569 50.7299 44.1C51.3034 44.3541 51.7529 44.8251 51.9797 45.41C52.2065 45.9948 52.1922 46.6457 51.9399 47.22V47.22L49.9999 51.49L45.6599 49.58L47.5499 45.31ZM42.9399 57.48C42.7005 56.9004 42.7005 56.2496 42.9399 55.67L44.8199 51.41L49.1599 53.32L47.2799 57.58C47.091 58.0095 46.7789 58.3732 46.383 58.6251C45.9872 58.877 45.5255 59.0057 45.0565 58.995C44.5874 58.9843 44.1321 58.8346 43.7482 58.5649C43.3643 58.2952 43.0691 57.9176 42.8999 57.48H42.9399ZM58.3099 58.3C57.8642 58.7458 57.2603 58.9974 56.6299 59H51.9999V54.25H56.4499C56.824 54.2454 57.1949 54.3186 57.5392 54.4649C57.8835 54.6112 58.1936 54.8275 58.4499 55.1C58.6473 55.3263 58.7976 55.5896 58.892 55.8747C58.9864 56.1597 59.0231 56.4607 58.9999 56.76C58.963 57.3397 58.718 57.8866 58.3099 58.3V58.3Z" fill="black" id="id_184"></path>
</svg>