<svg id="visual" viewBox="0 0 960 540" width="960" height="540" xmlns="http://www.w3.org/2000/svg" xmlns:xlink="http://www.w3.org/1999/xlink" version="1.1"><rect x="0" y="0" width="960" height="540" fill="#EDC7B7"></rect><defs><linearGradient id="grad1_0" x1="43.8%" y1="0%" x2="100%" y2="100%"><stop offset="14.444444444444446%" stop-color="#bab3b5" stop-opacity="1"></stop><stop offset="85.55555555555554%" stop-color="#bab3b5" stop-opacity="1"></stop></linearGradient></defs><defs><linearGradient id="grad1_1" x1="43.8%" y1="0%" x2="100%" y2="100%"><stop offset="14.444444444444446%" stop-color="#bab3b5" stop-opacity="1"></stop><stop offset="85.55555555555554%" stop-color="#d6bcbb" stop-opacity="1"></stop></linearGradient></defs><defs><linearGradient id="grad1_2" x1="43.8%" y1="0%" x2="100%" y2="100%"><stop offset="14.444444444444446%" stop-color="#edc7b7" stop-opacity="1"></stop><stop offset="85.55555555555554%" stop-color="#d6bcbb" stop-opacity="1"></stop></linearGradient></defs><defs><linearGradient id="grad2_0" x1="0%" y1="0%" x2="56.3%" y2="100%"><stop offset="14.444444444444446%" stop-color="#bab3b5" stop-opacity="1"></stop><stop offset="85.55555555555554%" stop-color="#bab3b5" stop-opacity="1"></stop></linearGradient></defs><defs><linearGradient id="grad2_1" x1="0%" y1="0%" x2="56.3%" y2="100%"><stop offset="14.444444444444446%" stop-color="#d6bcbb" stop-opacity="1"></stop><stop offset="85.55555555555554%" stop-color="#bab3b5" stop-opacity="1"></stop></linearGradient></defs><defs><linearGradient id="grad2_2" x1="0%" y1="0%" x2="56.3%" y2="100%"><stop offset="14.444444444444446%" stop-color="#d6bcbb" stop-opacity="1"></stop><stop offset="85.55555555555554%" stop-color="#edc7b7" stop-opacity="1"></stop></linearGradient></defs><g transform="translate(960, 0)"><path d="M0 270C-36.7 267.5 -73.3 265.1 -103.3 249.4C-133.3 233.8 -156.6 205 -178.2 178.2C-199.8 151.4 -219.6 126.6 -234.7 97.2C-249.7 67.8 -259.8 33.9 -270 0L0 0Z" fill="#e3c1ba"></path><path d="M0 180C-24.4 178.4 -48.9 176.7 -68.9 166.3C-88.9 155.9 -104.4 136.7 -118.8 118.8C-133.2 100.9 -146.4 84.4 -156.4 64.8C-166.5 45.2 -173.2 22.6 -180 0L0 0Z" fill="#c8b7b9"></path><path d="M0 90C-12.2 89.2 -24.4 88.4 -34.4 83.1C-44.4 77.9 -52.2 68.3 -59.4 59.4C-66.6 50.5 -73.2 42.2 -78.2 32.4C-83.2 22.6 -86.6 11.3 -90 0L0 0Z" fill="#bab3b5"></path></g><g transform="translate(0, 540)"><path d="M0 -270C30.5 -255.7 61 -241.4 95.7 -231C130.4 -220.5 169.3 -213.9 190.9 -190.9C212.6 -168 217 -128.7 227.3 -94.1C237.6 -59.6 253.8 -29.8 270 0L0 0Z" fill="#e3c1ba"></path><path d="M0 -180C20.3 -170.5 40.7 -161 63.8 -154C86.9 -147 112.8 -142.6 127.3 -127.3C141.7 -112 144.6 -85.8 151.5 -62.8C158.4 -39.7 169.2 -19.9 180 0L0 0Z" fill="#c8b7b9"></path><path d="M0 -90C10.2 -85.2 20.3 -80.5 31.9 -77C43.5 -73.5 56.4 -71.3 63.6 -63.6C70.9 -56 72.3 -42.9 75.8 -31.4C79.2 -19.9 84.6 -9.9 90 0L0 0Z" fill="#bab3b5"></path></g></svg>